<?xml version="1.0" encoding="utf-8"?>
<!-- Generator: Adobe Illustrator 22.1.0, SVG Export Plug-In . SVG Version: 6.00 Build 0)  -->
<svg version="1.1" id="Vrstva_1" xmlns="http://www.w3.org/2000/svg" xmlns:xlink="http://www.w3.org/1999/xlink" x="0px" y="0px"
	 viewBox="0 0 2440 700" style="enable-background:new 0 0 2440 700;" xml:space="preserve">
<style type="text/css">
	.st0{fill:#FFFFFF;}
	.st1{fill:#444445;}
</style>
<g>
	<rect x="69" y="50" class="st0" width="600" height="600"/>
</g>
<g>
	<rect x="469" y="350" class="st1" width="100" height="200"/>
</g>
<g>
	<rect x="369" y="450" class="st1" width="200" height="100"/>
</g>
<g>
	<rect x="169" y="150" class="st1" width="200" height="100"/>
</g>
<g>
	<rect x="169" y="150" class="st1" width="100" height="200"/>
</g>
<g>
	<path class="st0" d="M836.2,371.1v-36h59.4V441c-28.6,4.6-51.8,6.9-69.6,6.9c-31.8,0-53.7-8.5-65.5-25.5c-11.9-17-17.9-44-17.9-81
		c0-37,6.2-63.7,18.6-80.1c12.4-16.4,33.5-24.6,63.3-24.6c18.6,0,38.7,2.1,60.3,6.3l10.8,2.1l-1.2,32.1c-24-2.6-43.7-3.9-59-3.9
		c-15.3,0-26.1,1.8-32.3,5.4c-6.2,3.6-10.8,10.3-13.6,20c-2.9,9.7-4.4,26.3-4.4,49.8c0,23.5,2.9,40,8.7,49.4
		c5.8,9.4,17.8,14.1,36,14.1l24.9-1.2v-39.6H836.2z"/>
	<path class="st0" d="M1045.9,341.1v62.4c0.4,4.8,1.2,8.2,2.4,10c1.2,1.9,3.7,3.3,7.5,4l-1.2,30.3c-10.2,0-18.4-0.7-24.5-2.1
		c-6.1-1.4-12.3-4.2-18.5-8.4c-14.4,7-29.1,10.5-44.1,10.5c-31,0-46.5-16.4-46.5-49.2c0-16,4.3-27.3,12.9-34
		c8.6-6.7,21.8-10.7,39.6-11.9l32.1-2.4v-9.3c0-6.2-1.4-10.4-4.2-12.8c-2.8-2.3-7.3-3.4-13.5-3.4l-56.4,2.4l-1.2-27.9
		c21.4-5.8,41.7-8.7,61-8.7c19.3,0,33.2,4,41.7,12C1041.7,310.7,1045.9,323.5,1045.9,341.1z M978.4,380.7c-11.2,1-16.8,7-16.8,18
		c0,11,4.9,16.5,14.7,16.5c7.6,0,15.9-1.2,24.9-3.6l4.5-1.2v-32.1L978.4,380.7z"/>
	<path class="st0" d="M1124.5,444.3h-40.2v-150h39.9v8.4c13.8-8,25.6-12,35.4-12c16.2,0,28.7,4.7,37.5,14.1
		c18.4-9.4,35.2-14.1,50.4-14.1c19.8,0,33.5,5.8,41.3,17.3c7.7,11.5,11.5,29.9,11.5,55.1v81.3h-40.2v-80.1c0-12.8-1.4-22.2-4.2-28.3
		c-2.8-6.1-8.4-9.1-16.8-9.1c-6.4,0-14.2,1.4-23.4,4.2l-4.5,1.5c0.8,15,1.2,26.4,1.2,34.2v77.7h-40.2v-77.1
		c0-14.8-1.3-25.2-3.9-31.3c-2.6-6.1-8.3-9.1-17.1-9.1c-7.8,0-15.5,1.4-23.1,4.2l-3.6,1.2V444.3z"/>
	<path class="st0" d="M1376.4,406.3c4.7,4.1,11.4,6.2,20.3,6.2c18.6,0,35.2-0.6,49.8-1.8l8.4-0.9l0.6,29.7
		c-23,5.6-43.8,8.4-62.4,8.4c-22.6,0-39-6-49.2-18c-10.2-12-15.3-31.5-15.3-58.5c0-53.8,22.1-80.7,66.3-80.7
		c43.6,0,65.4,22.6,65.4,67.8l-3,27.9H1369C1369.2,395.6,1371.7,402.2,1376.4,406.3z M1420.6,355.8c0-12-1.9-20.3-5.7-25
		c-3.8-4.7-10.5-7.1-20-7.1c-9.5,0-16.2,2.5-20.1,7.4c-3.9,4.9-6,13.2-6.2,24.8H1420.6z"/>
	<path class="st0" d="M1563.1,311.2c10.6-13.7,28.3-20.6,53.1-20.6c24.8,0,42.5,6.9,53.1,20.6c10.6,13.7,15.9,33,15.9,57.8
		c0,52.6-23,78.9-69,78.9c-46,0-69-26.3-69-78.9C1547.2,344.2,1552.5,324.9,1563.1,311.2z M1594.2,402.9c4.1,7.2,11.4,10.8,22,10.8
		c10.6,0,17.9-3.6,22-10.8c4.1-7.2,6.2-18.5,6.2-33.9c0-15.4-2.1-26.6-6.2-33.6c-4.1-7-11.5-10.5-22-10.5c-10.6,0-18,3.5-22,10.5
		c-4.1,7-6.2,18.2-6.2,33.6C1588,384.4,1590.1,395.7,1594.2,402.9z"/>
	<path class="st0" d="M1762,328.5v115.8h-40.2V328.5h-16.2v-34.2h16.2v-6.6c0-21.6,3.2-36.5,9.6-44.7c6.4-8.2,17.8-12.3,34.2-12.3
		c7.2,0,16.5,1,27.9,3l6.3,0.9l-0.6,32.7c-8.8-0.4-16.2-0.6-22.2-0.6s-10,1.6-12,4.8c-2,3.2-3,8.7-3,16.5v6.3h36.3v34.2H1762z"/>
	<path class="st0" d="M2007.4,444.3h-116.1v-204h41.4v167.4h74.7V444.3z"/>
	<path class="st0" d="M2029.3,275.1v-40.8h40.2v40.8H2029.3z M2029.3,444.3v-150h40.2v150H2029.3z"/>
	<path class="st0" d="M2154.1,328.5v115.8h-40.2V328.5h-16.2v-34.2h16.2v-6.6c0-21.6,3.2-36.5,9.6-44.7c6.4-8.2,17.8-12.3,34.2-12.3
		c7.2,0,16.5,1,27.9,3l6.3,0.9l-0.6,32.7c-8.8-0.4-16.2-0.6-22.2-0.6s-10,1.6-12,4.8c-2,3.2-3,8.7-3,16.5v6.3h36.3v34.2H2154.1z"/>
	<path class="st0" d="M2253,406.3c4.7,4.1,11.4,6.2,20.3,6.2c18.6,0,35.2-0.6,49.8-1.8l8.4-0.9l0.6,29.7c-23,5.6-43.8,8.4-62.4,8.4
		c-22.6,0-39-6-49.2-18c-10.2-12-15.3-31.5-15.3-58.5c0-53.8,22.1-80.7,66.3-80.7c43.6,0,65.4,22.6,65.4,67.8l-3,27.9h-88.2
		C2245.8,395.6,2248.3,402.2,2253,406.3z M2297.2,355.8c0-12-1.9-20.3-5.7-25c-3.8-4.7-10.5-7.1-20-7.1c-9.5,0-16.2,2.5-20.1,7.4
		c-3.9,4.9-6,13.2-6.2,24.8H2297.2z"/>
</g>
</svg>
